<svg class="main-svg" xmlns="http://www.w3.org/2000/svg" xmlns:xlink="http://www.w3.org/1999/xlink" width="900" height="600" viewBox="0 0 900 600"><rect x="0" y="0" width="900" height="600" style="fill: rgb(255, 255, 255); fill-opacity: 1;"/><defs id="defs-2516db"><g class="clips"><clipPath id="clip2516dbxyplot" class="plotclip"><rect width="740" height="329.28000000000003"/></clipPath><clipPath id="clip2516dbx2y2plot" class="plotclip"><rect width="740" height="82.32000000000001"/></clipPath><clipPath class="axesclip" id="clip2516dbx"><rect x="80" y="0" width="740" height="600"/></clipPath><clipPath class="axesclip" id="clip2516dby"><rect x="0" y="100" width="900" height="329.28000000000003"/></clipPath><clipPath class="axesclip" id="clip2516dbxy"><rect x="80" y="100" width="740" height="329.28000000000003"/></clipPath><clipPath class="axesclip" id="clip2516dby2"><rect x="0" y="437.68" width="900" height="82.32000000000001"/></clipPath><clipPath class="axesclip" id="clip2516dbxy2"><rect x="80" y="437.68" width="740" height="82.32000000000001"/></clipPath><clipPath class="axesclip" id="clip2516dbx2"><rect x="80" y="0" width="740" height="600"/></clipPath><clipPath class="axesclip" id="clip2516dbx2y"><rect x="80" y="100" width="740" height="329.28000000000003"/></clipPath><clipPath class="axesclip" id="clip2516dbx2y2"><rect x="80" y="437.68" width="740" height="82.32000000000001"/></clipPath></g><g class="gradients"/></defs><g class="bglayer"><rect class="bg" x="80" y="100" width="740" height="329.28000000000003" style="fill: rgb(229, 236, 246); fill-opacity: 1; stroke-width: 0;"/><rect class="bg" x="80" y="437.68" width="740" height="82.32000000000001" style="fill: rgb(229, 236, 246); fill-opacity: 1; stroke-width: 0;"/></g><g class="layer-below"><g class="imagelayer"/><g class="shapelayer"/></g><g class="cartesianlayer"><g class="subplot xy"><g class="layer-subplot"><g class="shapelayer"/><g class="imagelayer"/></g><g class="gridlayer"><g class="x"><path class="xgrid crisp" transform="translate(94.8,0)" d="M0,100v329.28000000000003" style="stroke: rgb(255, 255, 255); stroke-opacity: 1; stroke-width: 1px;"/><path class="xgrid crisp" transform="translate(183.6,0)" d="M0,100v329.28000000000003" style="stroke: rgb(255, 255, 255); stroke-opacity: 1; stroke-width: 1px;"/><path class="xgrid crisp" transform="translate(272.4,0)" d="M0,100v329.28000000000003" style="stroke: rgb(255, 255, 255); stroke-opacity: 1; stroke-width: 1px;"/><path class="xgrid crisp" transform="translate(361.2,0)" d="M0,100v329.28000000000003" style="stroke: rgb(255, 255, 255); stroke-opacity: 1; stroke-width: 1px;"/><path class="xgrid crisp" transform="translate(450,0)" d="M0,100v329.28000000000003" style="stroke: rgb(255, 255, 255); stroke-opacity: 1; stroke-width: 1px;"/><path class="xgrid crisp" transform="translate(538.8,0)" d="M0,100v329.28000000000003" style="stroke: rgb(255, 255, 255); stroke-opacity: 1; stroke-width: 1px;"/><path class="xgrid crisp" transform="translate(627.6,0)" d="M0,100v329.28000000000003" style="stroke: rgb(255, 255, 255); stroke-opacity: 1; stroke-width: 1px;"/><path class="xgrid crisp" transform="translate(716.4,0)" d="M0,100v329.28000000000003" style="stroke: rgb(255, 255, 255); stroke-opacity: 1; stroke-width: 1px;"/><path class="xgrid crisp" transform="translate(805.2,0)" d="M0,100v329.28000000000003" style="stroke: rgb(255, 255, 255); stroke-opacity: 1; stroke-width: 1px;"/></g><g class="y"><path class="ygrid crisp" transform="translate(0,398.1)" d="M80,0h740" style="stroke: rgb(255, 255, 255); stroke-opacity: 1; stroke-width: 1px;"/><path class="ygrid crisp" transform="translate(0,361.51)" d="M80,0h740" style="stroke: rgb(255, 255, 255); stroke-opacity: 1; stroke-width: 1px;"/><path class="ygrid crisp" transform="translate(0,324.90999999999997)" d="M80,0h740" style="stroke: rgb(255, 255, 255); stroke-opacity: 1; stroke-width: 1px;"/><path class="ygrid crisp" transform="translate(0,288.31)" d="M80,0h740" style="stroke: rgb(255, 255, 255); stroke-opacity: 1; stroke-width: 1px;"/><path class="ygrid crisp" transform="translate(0,251.71)" d="M80,0h740" style="stroke: rgb(255, 255, 255); stroke-opacity: 1; stroke-width: 1px;"/><path class="ygrid crisp" transform="translate(0,215.11)" d="M80,0h740" style="stroke: rgb(255, 255, 255); stroke-opacity: 1; stroke-width: 1px;"/><path class="ygrid crisp" transform="translate(0,178.51)" d="M80,0h740" style="stroke: rgb(255, 255, 255); stroke-opacity: 1; stroke-width: 1px;"/><path class="ygrid crisp" transform="translate(0,141.91)" d="M80,0h740" style="stroke: rgb(255, 255, 255); stroke-opacity: 1; stroke-width: 1px;"/><path class="ygrid crisp" transform="translate(0,105.31)" d="M80,0h740" style="stroke: rgb(255, 255, 255); stroke-opacity: 1; stroke-width: 1px;"/></g></g><g class="zerolinelayer"/><path class="xlines-below"/><path class="ylines-below"/><g class="overlines-below"/><g class="xaxislayer-below"/><g class="yaxislayer-below"/><g class="overaxes-below"/><g class="plot" transform="translate(80,100)" clip-path="url('#clip2516dbxyplot')"><g class="boxlayer mlayer"><g class="trace boxes" style="opacity: 1;"><path class="box" d="M7.55,267.72H22.05M7.55,310.04H22.05V266.72H7.55ZM14.8,310.04V312.82M14.8,266.72V265.6" style="vector-effect: non-scaling-stroke; stroke-width: 2px; stroke: rgb(61, 153, 112); stroke-opacity: 1; fill: rgb(61, 153, 112); fill-opacity: 0.5; opacity: 1;"/><path class="box" d="M37.15,253.92H51.65M37.15,266.72H51.65V252.92H37.15ZM44.4,266.72V284.92M44.4,252.92V243.65" style="vector-effect: non-scaling-stroke; stroke-width: 2px; stroke: rgb(61, 153, 112); stroke-opacity: 1; fill: rgb(61, 153, 112); fill-opacity: 0.5; opacity: 1;"/><path class="box" d="M66.75,241.28H81.25M66.75,252.92H81.25V240.28H66.75ZM74,252.92V259.77M74,240.28V227.84" style="vector-effect: non-scaling-stroke; stroke-width: 2px; stroke: rgb(61, 153, 112); stroke-opacity: 1; fill: rgb(61, 153, 112); fill-opacity: 0.5; opacity: 1;"/><path class="box" d="M96.35,271.48H110.85M96.35,272.48H110.85V240.28H96.35ZM103.6,272.48V274.21M103.6,240.28V220.88" style="vector-effect: non-scaling-stroke; stroke-width: 2px; stroke: rgb(255, 65, 54); stroke-opacity: 1; fill: rgb(255, 65, 54); fill-opacity: 0.5; opacity: 1;"/><path class="box" d="M125.95,257.29H140.45M125.95,272.48H140.45V256.29H125.95ZM133.2,272.48V277.42M133.2,256.29V253.36" style="vector-effect: non-scaling-stroke; stroke-width: 2px; stroke: rgb(61, 153, 112); stroke-opacity: 1; fill: rgb(61, 153, 112); fill-opacity: 0.5; opacity: 1;"/><path class="box" d="M155.55,250.66H170.05M155.55,256.29H170.05V249.66H155.55ZM162.8,256.29V265.1M162.8,249.66V240.67" style="vector-effect: non-scaling-stroke; stroke-width: 2px; stroke: rgb(61, 153, 112); stroke-opacity: 1; fill: rgb(61, 153, 112); fill-opacity: 0.5; opacity: 1;"/><path class="box" d="M185.15,247.35H199.65M185.15,249.66H199.65V246.35H185.15ZM192.4,249.66V267.64M192.4,246.35V199.65" style="vector-effect: non-scaling-stroke; stroke-width: 2px; stroke: rgb(61, 153, 112); stroke-opacity: 1; fill: rgb(61, 153, 112); fill-opacity: 0.5; opacity: 1;"/><path class="box" d="M214.75,222.74H229.25M214.75,246.35H229.25V221.74H214.75ZM222,246.35V255.69M222,221.74V212.54" style="vector-effect: non-scaling-stroke; stroke-width: 2px; stroke: rgb(61, 153, 112); stroke-opacity: 1; fill: rgb(61, 153, 112); fill-opacity: 0.5; opacity: 1;"/><path class="box" d="M244.35,105.91H258.85M244.35,221.63H258.85V104.91H244.35ZM251.6,221.63V222.1M251.6,104.91V96.81" style="vector-effect: non-scaling-stroke; stroke-width: 2px; stroke: rgb(61, 153, 112); stroke-opacity: 1; fill: rgb(61, 153, 112); fill-opacity: 0.5; opacity: 1;"/><path class="box" d="M273.95,89.01H288.45M273.95,104.91H288.45V88.01H273.95ZM281.2,104.91V133.75M281.2,88.01V63.87" style="vector-effect: non-scaling-stroke; stroke-width: 2px; stroke: rgb(61, 153, 112); stroke-opacity: 1; fill: rgb(61, 153, 112); fill-opacity: 0.5; opacity: 1;"/><path class="box" d="M303.55,95.12H318.05M303.55,96.12H318.05V87.52H303.55ZM310.8,96.12V120.24M310.8,87.52V74.16" style="vector-effect: non-scaling-stroke; stroke-width: 2px; stroke: rgb(255, 65, 54); stroke-opacity: 1; fill: rgb(255, 65, 54); fill-opacity: 0.5; opacity: 1;"/><path class="box" d="M333.15,82.77H347.65M333.15,96.75H347.65V81.77H333.15ZM340.4,96.75V113.57M340.4,81.77V72.8" style="vector-effect: non-scaling-stroke; stroke-width: 2px; stroke: rgb(61, 153, 112); stroke-opacity: 1; fill: rgb(61, 153, 112); fill-opacity: 0.5; opacity: 1;"/><path class="box" d="M362.75,75.44H377.25M362.75,81.75H377.25V74.44H362.75ZM370,81.75V94.4M370,74.44V58.52" style="vector-effect: non-scaling-stroke; stroke-width: 2px; stroke: rgb(61, 153, 112); stroke-opacity: 1; fill: rgb(61, 153, 112); fill-opacity: 0.5; opacity: 1;"/><path class="box" d="M392.35,91.67H406.85M392.35,92.67H406.85V74.45H392.35ZM399.6,92.67V112.11M399.6,74.45V72.14" style="vector-effect: non-scaling-stroke; stroke-width: 2px; stroke: rgb(255, 65, 54); stroke-opacity: 1; fill: rgb(255, 65, 54); fill-opacity: 0.5; opacity: 1;"/><path class="box" d="M421.95,80.84H436.45M421.95,92.55H436.45V79.84H421.95ZM429.2,92.55V106.43M429.2,79.84V72.98" style="vector-effect: non-scaling-stroke; stroke-width: 2px; stroke: rgb(61, 153, 112); stroke-opacity: 1; fill: rgb(61, 153, 112); fill-opacity: 0.5; opacity: 1;"/><path class="box" d="M451.55,50.23H466.05M451.55,79.84H466.05V49.23H451.55ZM458.8,79.84V92.57M458.8,49.23V27.27" style="vector-effect: non-scaling-stroke; stroke-width: 2px; stroke: rgb(61, 153, 112); stroke-opacity: 1; fill: rgb(61, 153, 112); fill-opacity: 0.5; opacity: 1;"/><path class="box" d="M481.15,66.53H495.65M481.15,67.53H495.65V48.33H481.15ZM488.4,67.53V76.68M488.4,48.33V21.83" style="vector-effect: non-scaling-stroke; stroke-width: 2px; stroke: rgb(255, 65, 54); stroke-opacity: 1; fill: rgb(255, 65, 54); fill-opacity: 0.5; opacity: 1;"/><path class="box" d="M510.75,52.16H525.25M510.75,67.53H525.25V51.16H510.75ZM518,67.53V77.78M518,51.16V50.05" style="vector-effect: non-scaling-stroke; stroke-width: 2px; stroke: rgb(61, 153, 112); stroke-opacity: 1; fill: rgb(61, 153, 112); fill-opacity: 0.5; opacity: 1;"/><path class="box" d="M540.35,104.65H554.85M540.35,105.65H554.85V51.66H540.35ZM547.6,105.65V105.96M547.6,51.66V34.93" style="vector-effect: non-scaling-stroke; stroke-width: 2px; stroke: rgb(255, 65, 54); stroke-opacity: 1; fill: rgb(255, 65, 54); fill-opacity: 0.5; opacity: 1;"/><path class="box" d="M569.95,76.16H584.45M569.95,105.65H584.45V75.16H569.95ZM577.2,105.65V110.5M577.2,75.16V71.19" style="vector-effect: non-scaling-stroke; stroke-width: 2px; stroke: rgb(61, 153, 112); stroke-opacity: 1; fill: rgb(61, 153, 112); fill-opacity: 0.5; opacity: 1;"/><path class="box" d="M599.55,64.93H614.05M599.55,76.02H614.05V63.93H599.55ZM606.8,76.02V86.56M606.8,63.93V58.55" style="vector-effect: non-scaling-stroke; stroke-width: 2px; stroke: rgb(61, 153, 112); stroke-opacity: 1; fill: rgb(61, 153, 112); fill-opacity: 0.5; opacity: 1;"/><path class="box" d="M629.15,68.03H643.65M629.15,69.03H643.65V63.93H629.15ZM636.4,69.03V87.47M636.4,63.93V56.15" style="vector-effect: non-scaling-stroke; stroke-width: 2px; stroke: rgb(255, 65, 54); stroke-opacity: 1; fill: rgb(255, 65, 54); fill-opacity: 0.5; opacity: 1;"/><path class="box" d="M658.75,61.29H673.25M658.75,69.03H673.25V60.29H658.75ZM666,69.03V88.5M666,60.29V58.47" style="vector-effect: non-scaling-stroke; stroke-width: 2px; stroke: rgb(61, 153, 112); stroke-opacity: 1; fill: rgb(61, 153, 112); fill-opacity: 0.5; opacity: 1;"/><path class="box" d="M688.35,36.46H702.85M688.35,60.29H702.85V35.46H688.35ZM695.6,60.29V63.84M695.6,35.46V29.7" style="vector-effect: non-scaling-stroke; stroke-width: 2px; stroke: rgb(61, 153, 112); stroke-opacity: 1; fill: rgb(61, 153, 112); fill-opacity: 0.5; opacity: 1;"/><path class="box" d="M717.95,52.17H732.45M717.95,53.17H732.45V35.46H717.95ZM725.2,53.17V60.06M725.2,35.46V16.46" style="vector-effect: non-scaling-stroke; stroke-width: 2px; stroke: rgb(255, 65, 54); stroke-opacity: 1; fill: rgb(255, 65, 54); fill-opacity: 0.5; opacity: 1;"/></g></g><g class="scatterlayer mlayer"><g class="trace scatter trace22bcb3" style="stroke-miterlimit: 2; opacity: 1;"><g class="fills"/><g class="errorbars"/><g class="lines"><path class="js-line" d="M14.8,281.71L44.4,272L74,259.89L103.6,258.31L133.2,258.89L162.8,258.51L192.4,256.35L222,254.45L251.6,226.76L281.2,211.95L310.8,201.23L340.4,192.89L370,180.28L399.6,173.04L429.2,167.5L488.4,150.07L518,145.57L547.6,140.87L577.2,138.18L636.4,134.85L666,133.49L695.6,131.27L725.2,128.01" style="vector-effect: non-scaling-stroke; fill: none; stroke: rgb(157, 172, 173); stroke-opacity: 1; stroke-width: 2px; opacity: 1;"/></g><g class="points"/><g class="text"/></g></g></g><g class="overplot"/><path class="xlines-above crisp" d="M0,0" style="fill: none;"/><path class="ylines-above crisp" d="M0,0" style="fill: none;"/><g class="overlines-above"/><g class="xaxislayer-above"/><g class="yaxislayer-above"><g class="ytick"><text text-anchor="end" x="79" y="4.199999999999999" transform="translate(0,398.1)" style="font-family: 'Open Sans', verdana, arial, sans-serif; font-size: 12px; fill: rgb(42, 63, 95); fill-opacity: 1; white-space: pre;">60k</text></g><g class="ytick"><text text-anchor="end" x="79" y="4.199999999999999" transform="translate(0,361.51)" style="font-family: 'Open Sans', verdana, arial, sans-serif; font-size: 12px; fill: rgb(42, 63, 95); fill-opacity: 1; white-space: pre;">60.5k</text></g><g class="ytick"><text text-anchor="end" x="79" y="4.199999999999999" transform="translate(0,324.90999999999997)" style="font-family: 'Open Sans', verdana, arial, sans-serif; font-size: 12px; fill: rgb(42, 63, 95); fill-opacity: 1; white-space: pre;">61k</text></g><g class="ytick"><text text-anchor="end" x="79" y="4.199999999999999" transform="translate(0,288.31)" style="font-family: 'Open Sans', verdana, arial, sans-serif; font-size: 12px; fill: rgb(42, 63, 95); fill-opacity: 1; white-space: pre;">61.5k</text></g><g class="ytick"><text text-anchor="end" x="79" y="4.199999999999999" transform="translate(0,251.71)" style="font-family: 'Open Sans', verdana, arial, sans-serif; font-size: 12px; fill: rgb(42, 63, 95); fill-opacity: 1; white-space: pre;">62k</text></g><g class="ytick"><text text-anchor="end" x="79" y="4.199999999999999" transform="translate(0,215.11)" style="font-family: 'Open Sans', verdana, arial, sans-serif; font-size: 12px; fill: rgb(42, 63, 95); fill-opacity: 1; white-space: pre;">62.5k</text></g><g class="ytick"><text text-anchor="end" x="79" y="4.199999999999999" transform="translate(0,178.51)" style="font-family: 'Open Sans', verdana, arial, sans-serif; font-size: 12px; fill: rgb(42, 63, 95); fill-opacity: 1; white-space: pre;">63k</text></g><g class="ytick"><text text-anchor="end" x="79" y="4.199999999999999" transform="translate(0,141.91)" style="font-family: 'Open Sans', verdana, arial, sans-serif; font-size: 12px; fill: rgb(42, 63, 95); fill-opacity: 1; white-space: pre;">63.5k</text></g><g class="ytick"><text text-anchor="end" x="79" y="4.199999999999999" transform="translate(0,105.31)" style="font-family: 'Open Sans', verdana, arial, sans-serif; font-size: 12px; fill: rgb(42, 63, 95); fill-opacity: 1; white-space: pre;">64k</text></g></g><g class="overaxes-above"/></g><g class="subplot x2y2"><g class="layer-subplot"><g class="shapelayer"/><g class="imagelayer"/></g><g class="gridlayer"><g class="x2"/><g class="y2"><path class="y2grid crisp" transform="translate(0,495.63)" d="M80,0h740" style="stroke: rgb(255, 255, 255); stroke-opacity: 1; stroke-width: 1px;"/><path class="y2grid crisp" transform="translate(0,471.26)" d="M80,0h740" style="stroke: rgb(255, 255, 255); stroke-opacity: 1; stroke-width: 1px;"/><path class="y2grid crisp" transform="translate(0,446.89)" d="M80,0h740" style="stroke: rgb(255, 255, 255); stroke-opacity: 1; stroke-width: 1px;"/></g></g><g class="zerolinelayer"><path class="y2zl zl crisp" transform="translate(0,520)" d="M80,0h740" style="stroke: rgb(255, 255, 255); stroke-opacity: 1; stroke-width: 2px;"/></g><path class="xlines-below"/><path class="ylines-below"/><g class="overlines-below"/><g class="xaxislayer-below"/><g class="yaxislayer-below"/><g class="overaxes-below"/><g class="plot" transform="translate(80,437.68)" clip-path="url('#clip2516dbx2y2plot')"><g class="barlayer mlayer"><g class="trace bars" style="opacity: 1;"><g class="points"><g class="point"><path d="M2.96,82.32V50.88H26.64V82.32Z" style="vector-effect: non-scaling-stroke; opacity: 1; stroke-width: 0.5px; fill: rgb(61, 72, 73); fill-opacity: 1; stroke: rgb(229, 236, 246); stroke-opacity: 1;"/></g><g class="point"><path d="M32.56,82.32V55.77H56.24V82.32Z" style="vector-effect: non-scaling-stroke; opacity: 1; stroke-width: 0.5px; fill: rgb(61, 72, 73); fill-opacity: 1; stroke: rgb(229, 236, 246); stroke-opacity: 1;"/></g><g class="point"><path d="M62.16,82.32V41.62H85.84V82.32Z" style="vector-effect: non-scaling-stroke; opacity: 1; stroke-width: 0.5px; fill: rgb(61, 72, 73); fill-opacity: 1; stroke: rgb(229, 236, 246); stroke-opacity: 1;"/></g><g class="point"><path d="M91.76,82.32V18.59H115.44V82.32Z" style="vector-effect: non-scaling-stroke; opacity: 1; stroke-width: 0.5px; fill: rgb(61, 72, 73); fill-opacity: 1; stroke: rgb(229, 236, 246); stroke-opacity: 1;"/></g><g class="point"><path d="M121.36,82.32V54.95H145.04V82.32Z" style="vector-effect: non-scaling-stroke; opacity: 1; stroke-width: 0.5px; fill: rgb(61, 72, 73); fill-opacity: 1; stroke: rgb(229, 236, 246); stroke-opacity: 1;"/></g><g class="point"><path d="M150.96,82.32V71.56H174.64V82.32Z" style="vector-effect: non-scaling-stroke; opacity: 1; stroke-width: 0.5px; fill: rgb(61, 72, 73); fill-opacity: 1; stroke: rgb(229, 236, 246); stroke-opacity: 1;"/></g><g class="point"><path d="M180.56,82.32V58.83H204.24V82.32Z" style="vector-effect: non-scaling-stroke; opacity: 1; stroke-width: 0.5px; fill: rgb(61, 72, 73); fill-opacity: 1; stroke: rgb(229, 236, 246); stroke-opacity: 1;"/></g><g class="point"><path d="M210.16,82.32V64.99H233.84V82.32Z" style="vector-effect: non-scaling-stroke; opacity: 1; stroke-width: 0.5px; fill: rgb(61, 72, 73); fill-opacity: 1; stroke: rgb(229, 236, 246); stroke-opacity: 1;"/></g><g class="point"><path d="M239.76,82.32V4.12H263.44V82.32Z" style="vector-effect: non-scaling-stroke; opacity: 1; stroke-width: 0.5px; fill: rgb(61, 72, 73); fill-opacity: 1; stroke: rgb(229, 236, 246); stroke-opacity: 1;"/></g><g class="point"><path d="M269.36,82.32V41.78H293.04V82.32Z" style="vector-effect: non-scaling-stroke; opacity: 1; stroke-width: 0.5px; fill: rgb(61, 72, 73); fill-opacity: 1; stroke: rgb(229, 236, 246); stroke-opacity: 1;"/></g><g class="point"><path d="M298.96,82.32V45.33H322.64V82.32Z" style="vector-effect: non-scaling-stroke; opacity: 1; stroke-width: 0.5px; fill: rgb(61, 72, 73); fill-opacity: 1; stroke: rgb(229, 236, 246); stroke-opacity: 1;"/></g><g class="point"><path d="M328.56,82.32V50.32H352.24V82.32Z" style="vector-effect: non-scaling-stroke; opacity: 1; stroke-width: 0.5px; fill: rgb(61, 72, 73); fill-opacity: 1; stroke: rgb(229, 236, 246); stroke-opacity: 1;"/></g><g class="point"><path d="M358.16,82.32V30.56H381.84V82.32Z" style="vector-effect: non-scaling-stroke; opacity: 1; stroke-width: 0.5px; fill: rgb(61, 72, 73); fill-opacity: 1; stroke: rgb(229, 236, 246); stroke-opacity: 1;"/></g><g class="point"><path d="M387.76,82.32V39.15H411.44V82.32Z" style="vector-effect: non-scaling-stroke; opacity: 1; stroke-width: 0.5px; fill: rgb(61, 72, 73); fill-opacity: 1; stroke: rgb(229, 236, 246); stroke-opacity: 1;"/></g><g class="point"><path d="M417.36,82.32V46.57H441.04V82.32Z" style="vector-effect: non-scaling-stroke; opacity: 1; stroke-width: 0.5px; fill: rgb(61, 72, 73); fill-opacity: 1; stroke: rgb(229, 236, 246); stroke-opacity: 1;"/></g><g class="point"><path d="M446.96,82.32V33.51H470.64V82.32Z" style="vector-effect: non-scaling-stroke; opacity: 1; stroke-width: 0.5px; fill: rgb(61, 72, 73); fill-opacity: 1; stroke: rgb(229, 236, 246); stroke-opacity: 1;"/></g><g class="point"><path d="M476.56,82.32V27.57H500.24V82.32Z" style="vector-effect: non-scaling-stroke; opacity: 1; stroke-width: 0.5px; fill: rgb(61, 72, 73); fill-opacity: 1; stroke: rgb(229, 236, 246); stroke-opacity: 1;"/></g><g class="point"><path d="M506.16,82.32V47.59H529.84V82.32Z" style="vector-effect: non-scaling-stroke; opacity: 1; stroke-width: 0.5px; fill: rgb(61, 72, 73); fill-opacity: 1; stroke: rgb(229, 236, 246); stroke-opacity: 1;"/></g><g class="point"><path d="M535.76,82.32V26.45H559.44V82.32Z" style="vector-effect: non-scaling-stroke; opacity: 1; stroke-width: 0.5px; fill: rgb(61, 72, 73); fill-opacity: 1; stroke: rgb(229, 236, 246); stroke-opacity: 1;"/></g><g class="point"><path d="M565.36,82.32V43.65H589.04V82.32Z" style="vector-effect: non-scaling-stroke; opacity: 1; stroke-width: 0.5px; fill: rgb(61, 72, 73); fill-opacity: 1; stroke: rgb(229, 236, 246); stroke-opacity: 1;"/></g><g class="point"><path d="M594.96,82.32V60.03H618.64V82.32Z" style="vector-effect: non-scaling-stroke; opacity: 1; stroke-width: 0.5px; fill: rgb(61, 72, 73); fill-opacity: 1; stroke: rgb(229, 236, 246); stroke-opacity: 1;"/></g><g class="point"><path d="M624.56,82.32V63.81H648.24V82.32Z" style="vector-effect: non-scaling-stroke; opacity: 1; stroke-width: 0.5px; fill: rgb(61, 72, 73); fill-opacity: 1; stroke: rgb(229, 236, 246); stroke-opacity: 1;"/></g><g class="point"><path d="M654.16,82.32V64.76H677.84V82.32Z" style="vector-effect: non-scaling-stroke; opacity: 1; stroke-width: 0.5px; fill: rgb(61, 72, 73); fill-opacity: 1; stroke: rgb(229, 236, 246); stroke-opacity: 1;"/></g><g class="point"><path d="M683.76,82.32V60.91H707.44V82.32Z" style="vector-effect: non-scaling-stroke; opacity: 1; stroke-width: 0.5px; fill: rgb(61, 72, 73); fill-opacity: 1; stroke: rgb(229, 236, 246); stroke-opacity: 1;"/></g><g class="point"><path d="M713.36,82.32V48.7H737.04V82.32Z" style="vector-effect: non-scaling-stroke; opacity: 1; stroke-width: 0.5px; fill: rgb(61, 72, 73); fill-opacity: 1; stroke: rgb(229, 236, 246); stroke-opacity: 1;"/></g></g></g></g></g><g class="overplot"/><path class="xlines-above crisp" d="M0,0" style="fill: none;"/><path class="ylines-above crisp" d="M0,0" style="fill: none;"/><g class="overlines-above"/><g class="xaxislayer-above"><g class="x2tick"><text text-anchor="middle" x="0" y="533" transform="translate(94.8,0)" style="font-family: 'Open Sans', verdana, arial, sans-serif; font-size: 12px; fill: rgb(42, 63, 95); fill-opacity: 1; white-space: pre;"><tspan class="line" dy="0em" x="0" y="533">00:00</tspan><tspan class="line" dy="1.3em" x="0" y="533">Apr 13, 2021</tspan></text></g><g class="x2tick"><text text-anchor="middle" x="0" y="533" transform="translate(183.6,0)" style="font-family: 'Open Sans', verdana, arial, sans-serif; font-size: 12px; fill: rgb(42, 63, 95); fill-opacity: 1; white-space: pre;">03:00</text></g><g class="x2tick"><text text-anchor="middle" x="0" y="533" transform="translate(272.4,0)" style="font-family: 'Open Sans', verdana, arial, sans-serif; font-size: 12px; fill: rgb(42, 63, 95); fill-opacity: 1; white-space: pre;">06:00</text></g><g class="x2tick"><text text-anchor="middle" x="0" y="533" transform="translate(361.2,0)" style="font-family: 'Open Sans', verdana, arial, sans-serif; font-size: 12px; fill: rgb(42, 63, 95); fill-opacity: 1; white-space: pre;">09:00</text></g><g class="x2tick"><text text-anchor="middle" x="0" y="533" transform="translate(450,0)" style="font-family: 'Open Sans', verdana, arial, sans-serif; font-size: 12px; fill: rgb(42, 63, 95); fill-opacity: 1; white-space: pre;">12:00</text></g><g class="x2tick"><text text-anchor="middle" x="0" y="533" transform="translate(538.8,0)" style="font-family: 'Open Sans', verdana, arial, sans-serif; font-size: 12px; fill: rgb(42, 63, 95); fill-opacity: 1; white-space: pre;">15:00</text></g><g class="x2tick"><text text-anchor="middle" x="0" y="533" transform="translate(627.6,0)" style="font-family: 'Open Sans', verdana, arial, sans-serif; font-size: 12px; fill: rgb(42, 63, 95); fill-opacity: 1; white-space: pre;">18:00</text></g><g class="x2tick"><text text-anchor="middle" x="0" y="533" transform="translate(716.4,0)" style="font-family: 'Open Sans', verdana, arial, sans-serif; font-size: 12px; fill: rgb(42, 63, 95); fill-opacity: 1; white-space: pre;">21:00</text></g><g class="x2tick"><text text-anchor="middle" x="0" y="533" transform="translate(805.2,0)" style="font-family: 'Open Sans', verdana, arial, sans-serif; font-size: 12px; fill: rgb(42, 63, 95); fill-opacity: 1; white-space: pre;"><tspan class="line" dy="0em" x="0" y="533">00:00</tspan><tspan class="line" dy="1.3em" x="0" y="533">Apr 14, 2021</tspan></text></g></g><g class="yaxislayer-above"><g class="y2tick"><text text-anchor="end" x="79" y="4.199999999999999" transform="translate(0,520)" style="font-family: 'Open Sans', verdana, arial, sans-serif; font-size: 12px; fill: rgb(42, 63, 95); fill-opacity: 1; white-space: pre;">0</text></g><g class="y2tick"><text text-anchor="end" x="79" y="4.199999999999999" transform="translate(0,495.63)" style="font-family: 'Open Sans', verdana, arial, sans-serif; font-size: 12px; fill: rgb(42, 63, 95); fill-opacity: 1; white-space: pre;">500</text></g><g class="y2tick"><text text-anchor="end" x="79" y="4.199999999999999" transform="translate(0,471.26)" style="font-family: 'Open Sans', verdana, arial, sans-serif; font-size: 12px; fill: rgb(42, 63, 95); fill-opacity: 1; white-space: pre;">1000</text></g><g class="y2tick"><text text-anchor="end" x="79" y="4.199999999999999" transform="translate(0,446.89)" style="font-family: 'Open Sans', verdana, arial, sans-serif; font-size: 12px; fill: rgb(42, 63, 95); fill-opacity: 1; white-space: pre;">1500</text></g></g><g class="overaxes-above"/></g></g><g class="polarlayer"/><g class="ternarylayer"/><g class="geolayer"/><g class="funnelarealayer"/><g class="pielayer"/><g class="treemaplayer"/><g class="sunburstlayer"/><g class="glimages"/><defs id="topdefs-2516db"><g class="clips"/></defs><g class="layer-above"><g class="imagelayer"/><g class="shapelayer"/></g><g class="infolayer"><g class="g-gtitle"><text class="gtitle" x="450" y="50" text-anchor="middle" dy="0em" style="font-family: 'Open Sans', verdana, arial, sans-serif; font-size: 17px; fill: rgb(42, 63, 95); opacity: 1; font-weight: normal; white-space: pre;">BTC/USD - Apr 13, 2021</text></g><g class="g-xtitle"/><g class="g-x2title"/><g class="g-ytitle"><text class="ytitle" transform="rotate(-90,24.121875000000003,264.64)" x="24.121875000000003" y="264.64" text-anchor="middle" style="font-family: 'Open Sans', verdana, arial, sans-serif; font-size: 14px; fill: rgb(42, 63, 95); opacity: 1; font-weight: normal; white-space: pre;">USD Price</text></g><g class="g-y2title"><text class="y2title" transform="rotate(-90,26.746875000000003,478.84000000000003)" x="26.746875000000003" y="478.84000000000003" text-anchor="middle" style="font-family: 'Open Sans', verdana, arial, sans-serif; font-size: 14px; fill: rgb(42, 63, 95); opacity: 1; font-weight: normal; white-space: pre;">Volume</text></g></g></svg>